<svg xmlns="http://www.w3.org/2000/svg" xmlns:xlink="http://www.w3.org/1999/xlink" version="1.0" x="0" y="0" width="2400" height="2400.305923761106" viewBox="139.4 94.39610900878907 61.2 61.207801055908206" preserveAspectRatio="xMidYMid meet" color-interpolation-filters="sRGB"><g><defs><linearGradient id="92" x1="0%" y1="0%" x2="100%" y2="0%"><stop offset="0%" stop-color="#fa71cd"></stop> <stop offset="100%" stop-color="#9b59b6"></stop></linearGradient><linearGradient id="93" x1="0%" y1="0%" x2="100%" y2="0%"><stop offset="0%" stop-color="#f9d423"></stop> <stop offset="100%" stop-color="#f83600"></stop></linearGradient><linearGradient id="94" x1="0%" y1="0%" x2="100%" y2="0%"><stop offset="0%" stop-color="#0064d2"></stop> <stop offset="100%" stop-color="#1cb0f6"></stop></linearGradient><linearGradient id="95" x1="0%" y1="0%" x2="100%" y2="0%"><stop offset="0%" stop-color="#f00978"></stop> <stop offset="100%" stop-color="#3f51b1"></stop></linearGradient><linearGradient id="96" x1="0%" y1="0%" x2="100%" y2="0%"><stop offset="0%" stop-color="#7873f5"></stop> <stop offset="100%" stop-color="#ec77ab"></stop></linearGradient><linearGradient id="97" x1="0%" y1="0%" x2="100%" y2="0%"><stop offset="0%" stop-color="#f9d423"></stop> <stop offset="100%" stop-color="#e14fad"></stop></linearGradient><linearGradient id="98" x1="0%" y1="0%" x2="100%" y2="0%"><stop offset="0%" stop-color="#009efd"></stop> <stop offset="100%" stop-color="#2af598"></stop></linearGradient><linearGradient id="99" x1="0%" y1="0%" x2="100%" y2="0%"><stop offset="0%" stop-color="#ffcc00"></stop> <stop offset="100%" stop-color="#00b140"></stop></linearGradient><linearGradient id="100" x1="0%" y1="0%" x2="100%" y2="0%"><stop offset="0%" stop-color="#d51007"></stop> <stop offset="100%" stop-color="#ff8177"></stop></linearGradient><linearGradient id="102" x1="0%" y1="0%" x2="100%" y2="0%"><stop offset="0%" stop-color="#a2b6df"></stop> <stop offset="100%" stop-color="#0c3483"></stop></linearGradient><linearGradient id="103" x1="0%" y1="0%" x2="100%" y2="0%"><stop offset="0%" stop-color="#7ac5d8"></stop> <stop offset="100%" stop-color="#eea2a2"></stop></linearGradient><linearGradient id="104" x1="0%" y1="0%" x2="100%" y2="0%"><stop offset="0%" stop-color="#00ecbc"></stop> <stop offset="100%" stop-color="#007adf"></stop></linearGradient><linearGradient id="105" x1="0%" y1="0%" x2="100%" y2="0%"><stop offset="0%" stop-color="#b88746"></stop> <stop offset="100%" stop-color="#fdf5a6"></stop></linearGradient></defs><g class="imagesvg isNoFont" transform="translate(140,94.9960994720459)"><g><rect fill="#333" fill-opacity="0" stroke-width="2" x="0" y="0" width="60" height="60.007801014131836" class="image-rect"></rect> <svg x="0" y="0" width="60" height="60.007801014131836" filtersec="colorsb2754097451" class="image-svg-svg primary" style="overflow: visible;"><svg xmlns="http://www.w3.org/2000/svg" viewBox="-0.013850562274456024 0.0049994695000350475 91.67761993408203 91.68975830078125"><path d="M6.85 49.61a8.76 8.76 0 0 0-.15 17.07c1.58.38 3.45.27 5.48.71A15.91 15.91 0 0 1 24.4 80.15c.31 1.77.2 3.81.76 5.52a8.92 8.92 0 0 0 2.19 3.5A8.77 8.77 0 0 0 39.93 77a8.67 8.67 0 0 0-3-2.15c-2.3-1-3.25-.62-5.5-.92a16 16 0 0 1-3.8-1 12.33 12.33 0 0 1-2.77-1.45A15.86 15.86 0 0 1 22.22 47a15.78 15.78 0 0 1 8.59-4.46c1.58-.27 3.31-.14 4.87-.54a8.77 8.77 0 1 0-10.53-11.2c-.62 1.92-.39 2.83-.64 4.76a15.9 15.9 0 0 1-13.9 13.73 30.72 30.72 0 0 0-3.76.34z" fill="#0086c0"></path><path d="M84.81 42.05A8.76 8.76 0 0 0 85 25c-1.57-.38-3.44-.27-5.47-.71a15.87 15.87 0 0 1-12.27-12.78C67 9.75 67.06 7.7 66.5 6a8.85 8.85 0 0 0-2.19-3.5 8.76 8.76 0 1 0-9.53 14.34c2.3 1 3.26.62 5.51.92a15.47 15.47 0 0 1 3.79 1 11.71 11.71 0 0 1 2.77 1.44 15.88 15.88 0 0 1-6 29c-1.59.27-3.32.13-4.87.53a8.76 8.76 0 1 0 10.52 11.2c.62-1.91.39-2.83.64-4.76A15.87 15.87 0 0 1 81.06 42.4a30.73 30.73 0 0 0 3.75-.35z" fill="#fec577"></path><path d="M49.61 84.81a8.76 8.76 0 0 0 17.07.19c.38-1.57.27-3.45.71-5.47a15.91 15.91 0 0 1 12.76-12.27c1.77-.31 3.81-.2 5.52-.76a8.92 8.92 0 0 0 3.5-2.19A8.77 8.77 0 0 0 77 51.73a8.67 8.67 0 0 0-2.15 3.05c-1 2.3-.62 3.26-.92 5.51a15.91 15.91 0 0 1-1 3.79 12.12 12.12 0 0 1-1.45 2.77 15.87 15.87 0 0 1-28.94-6c-.27-1.58-.14-3.31-.54-4.86a8.76 8.76 0 1 0-15 8 8.81 8.81 0 0 0 3.81 2.48c1.92.62 2.83.39 4.76.64a15.9 15.9 0 0 1 13.7 13.95 30.74 30.74 0 0 0 .34 3.75z" fill="#51d25b"></path><path d="M42.05 6.85A8.76 8.76 0 0 0 25 6.7c-.38 1.58-.27 3.45-.71 5.47A15.87 15.87 0 0 1 11.51 24.4c-1.76.31-3.81.2-5.51.76a8.77 8.77 0 0 0-3.43 14.52 8.77 8.77 0 0 0 14.27-2.8c1-2.29.62-3.25.92-5.5a15.55 15.55 0 0 1 1-3.8 11.91 11.91 0 0 1 1.44-2.77 15.88 15.88 0 0 1 29 6c.27 1.58.13 3.31.53 4.87a8.77 8.77 0 1 0 11.2-10.53c-1.91-.62-2.83-.39-4.76-.64a15.88 15.88 0 0 1-13.77-13.9 30.71 30.71 0 0 0-.35-3.76z" fill="#ff5b72"></path><path d="M89.13 14.79a8.66 8.66 0 1 1 0-12.25 8.67 8.67 0 0 1 0 12.25z" fill="#fec577" fill-rule="evenodd"></path><path d="M89.13 89.12a8.66 8.66 0 1 1 0-12.25 8.67 8.67 0 0 1 0 12.25z" fill="#51d25b" fill-rule="evenodd"></path><path d="M14.79 14.79a8.66 8.66 0 1 1 0-12.25 8.67 8.67 0 0 1 0 12.25z" fill="#ff5b72" fill-rule="evenodd"></path><path d="M14.79 89.12a8.66 8.66 0 1 1 0-12.25 8.67 8.67 0 0 1 0 12.25z" fill="#0086c0" fill-rule="evenodd"></path></svg></svg> </g></g><defs v-gra="od"></defs></g></svg>